<?xml version="1.0" encoding="UTF-8"?>
<svg width="512px" height="512px" viewBox="0 0 512 512" version="1.1" xmlns="http://www.w3.org/2000/svg" xmlns:xlink="http://www.w3.org/1999/xlink">
    <title>pwa</title>
    <defs>
        <linearGradient x1="50%" y1="-0.892857143%" x2="50%" y2="108.709524%" id="linearGradient-1">
            <stop stop-color="#1A6DFF" offset="0%"></stop>
            <stop stop-color="#C822FF" offset="100%"></stop>
        </linearGradient>
        <linearGradient x1="50%" y1="-6.25%" x2="50%" y2="1057.4%" id="linearGradient-2">
            <stop stop-color="#6DC7FF" offset="0%"></stop>
            <stop stop-color="#E6ABFF" offset="100%"></stop>
        </linearGradient>
        <linearGradient x1="50%" y1="-6.25%" x2="50%" y2="1057.4%" id="linearGradient-3">
            <stop stop-color="#6DC7FF" offset="0%"></stop>
            <stop stop-color="#E6ABFF" offset="100%"></stop>
        </linearGradient>
        <linearGradient x1="50%" y1="-306.25%" x2="50%" y2="757.4%" id="linearGradient-4">
            <stop stop-color="#6DC7FF" offset="0%"></stop>
            <stop stop-color="#E6ABFF" offset="100%"></stop>
        </linearGradient>
        <linearGradient x1="50%" y1="-906.25%" x2="50%" y2="157.4%" id="linearGradient-5">
            <stop stop-color="#6DC7FF" offset="0%"></stop>
            <stop stop-color="#E6ABFF" offset="100%"></stop>
        </linearGradient>
        <linearGradient x1="50%" y1="-606.25%" x2="50%" y2="457.4%" id="linearGradient-6">
            <stop stop-color="#6DC7FF" offset="0%"></stop>
            <stop stop-color="#E6ABFF" offset="100%"></stop>
        </linearGradient>
    </defs>
    <g id="pwa" stroke="none" stroke-width="1" fill="none" fill-rule="evenodd">
        <g id="talk-outliner-icon">
            <rect id="Rectangle" fill="url(#linearGradient-1)" fill-rule="nonzero" x="0" y="0" width="512" height="512"></rect>
            <g id="page" transform="translate(56.000000, 56.000000)">
                <rect id="Rectangle" fill="#FFFFFF" x="0" y="0" width="400" height="400" rx="16"></rect>
                <g id="lines" transform="translate(44.000000, 53.000000)" fill-rule="nonzero">
                    <polygon id="Path" fill="url(#linearGradient-2)" points="4 67 228 67 228 99 4 99"></polygon>
                    <polygon id="Path" fill="url(#linearGradient-3)" points="4 3 132 3 132 35 4 35"></polygon>
                    <polygon id="Path" fill="url(#linearGradient-4)" points="44 131 188 131 188 163 44 163"></polygon>
                    <polygon id="Path" fill="url(#linearGradient-5)" points="4 259 148 259 148 291 4 291"></polygon>
                    <polygon id="Path" fill="url(#linearGradient-6)" points="84 195 284 195 284 227 84 227"></polygon>
                </g>
            </g>
        </g>
    </g>
</svg>